<svg version="1.1" id="Layer_1" xmlns="http://www.w3.org/2000/svg" xmlns:xlink="http://www.w3.org/1999/xlink" x="0px" y="0px"
	 width="100%" viewBox="0 0 1024 1024" enable-background="new 0 0 1024 1024" xml:space="preserve">
<path fill="#000000" opacity="1.000000" stroke="none" 
	d="
M499.000000,760.128113 
	C445.834778,760.189575 393.169556,760.229370 340.504395,760.327637 
	C324.523621,760.357483 310.568817,755.317749 298.396179,744.816589 
	C287.464966,735.386353 281.803009,723.492615 281.766052,709.346741 
	C281.572815,635.347473 281.592804,561.347412 281.717163,487.347870 
	C281.745178,470.685944 298.141174,455.163086 315.559296,454.702576 
	C321.222260,454.552826 326.892395,454.694733 332.558289,454.623932 
	C334.326324,454.601868 336.261047,455.112274 337.707245,453.612579 
	C338.272614,452.080444 337.419067,450.940430 336.767578,449.828064 
	C325.059937,429.837799 320.129700,408.240692 321.716217,385.195160 
	C322.085754,379.826965 320.634003,377.362488 314.892761,376.252808 
	C300.221130,373.417053 292.714600,363.976166 292.802765,349.217194 
	C292.885315,335.400848 291.634308,321.517609 293.446228,307.781250 
	C295.164673,294.753479 304.114258,286.566406 317.352753,285.956299 
	C322.439362,285.721863 323.755646,283.506989 324.664581,279.381836 
	C331.551788,248.125381 347.428650,222.160126 372.444153,202.387665 
	C397.430359,182.638321 425.962250,171.663666 458.264923,171.833633 
	C471.431061,171.902908 484.599243,171.732986 497.763763,171.893738 
	C502.021698,171.945724 504.012177,170.444290 503.692932,166.089630 
	C503.547089,164.100479 503.524048,162.078415 503.699799,160.093826 
	C504.385040,152.354416 503.407837,146.702087 494.970367,142.175491 
	C483.216766,135.869827 479.739746,120.455452 484.469330,106.825127 
	C489.113068,93.442268 500.877197,85.935036 516.048584,86.672989 
	C528.008972,87.254753 540.129272,97.720016 543.040649,109.979256 
	C546.413269,124.180817 540.010254,138.291138 526.783081,144.633224 
	C523.108948,146.394867 521.999329,148.537292 522.198914,152.306091 
	C522.454102,157.125793 522.487305,161.983887 522.184692,166.798309 
	C521.926941,170.900543 523.707031,171.956955 527.454773,171.923676 
	C541.953552,171.794922 556.477844,171.332947 570.949036,171.975937 
	C599.959473,173.264954 627.221130,180.677261 650.621399,198.621933 
	C677.104431,218.930649 694.134521,245.553482 701.245728,278.264404 
	C702.269775,282.974854 703.045166,285.676025 709.210083,286.285004 
	C725.525024,287.896576 734.187256,298.522919 734.287659,315.008087 
	C734.358765,326.674286 734.372864,338.341583 734.300903,350.007751 
	C734.216431,363.707764 725.713074,373.606659 712.317871,376.402100 
	C702.917480,378.363861 704.291199,376.379822 704.405273,385.996216 
	C704.589600,401.526520 704.462097,416.927185 698.404480,431.656525 
	C695.857178,437.850464 693.000610,443.816742 689.250549,449.360657 
	C688.337830,450.709961 686.951904,451.825134 686.916016,453.806915 
	C688.943726,455.381165 691.346985,454.469543 693.571472,454.604828 
	C701.527466,455.088593 709.540466,453.798431 717.465759,455.568115 
	C733.373718,459.120361 744.316040,472.567535 744.320618,488.862976 
	C744.341064,561.529419 744.347717,634.195801 744.334717,706.862244 
	C744.329956,733.468018 723.853455,756.154602 697.432800,759.453735 
	C685.267029,760.972900 673.133911,760.001404 660.993286,760.034241 
	C607.162476,760.179871 553.331177,760.116638 499.000000,760.128113 
M412.500061,537.334717 
	C377.334076,537.342285 342.168091,537.339294 307.002106,537.366516 
	C300.336182,537.371704 300.326904,537.427002 300.326294,543.961182 
	C300.321259,598.293823 300.473511,652.627319 300.169861,706.958252 
	C300.117767,716.277832 303.589203,723.342590 309.699921,729.667114 
	C318.532379,738.808655 329.696167,741.643860 341.960754,741.639587 
	C410.293243,741.615662 478.625702,741.630737 546.958191,741.630005 
	C594.124268,741.629456 641.290344,741.600464 688.456421,741.633789 
	C707.330200,741.647156 726.489441,726.205139 726.122375,704.704163 
	C725.195129,650.387146 725.750610,596.044067 725.845703,541.711670 
	C725.853394,537.287354 725.176392,535.110474 719.920227,535.250366 
	C701.607483,535.737671 683.281860,535.805786 664.960510,535.894409 
	C581.139893,536.299744 497.311920,535.390320 412.500061,537.334717 
M645.429565,365.933258 
	C662.190430,343.280731 665.901306,318.675385 653.746460,293.187317 
	C640.358765,265.114075 617.334961,251.624390 585.912781,251.910263 
	C536.084106,252.363602 486.250031,252.235550 436.418152,252.323990 
	C430.034363,252.335312 423.859009,253.589005 417.740234,255.192184 
	C392.714020,261.749268 362.711670,291.673798 368.147644,330.364319 
	C371.934875,357.319763 386.078217,376.073975 411.149963,386.416931 
	C421.898193,390.850983 433.406799,389.670258 444.705597,389.891998 
	C449.546722,389.987000 453.765961,388.936157 457.883087,386.292328 
	C464.131226,382.279968 467.040436,382.269043 472.721710,387.269897 
	C492.957733,405.082123 536.105530,404.992371 554.033997,386.060120 
	C558.542664,381.299072 563.483521,380.953918 568.289612,385.202423 
	C573.235474,389.574554 578.517395,389.978882 584.391907,389.745087 
	C587.719666,389.612671 591.064697,389.589325 594.389587,389.758972 
	C615.329346,390.827393 631.837585,382.332642 645.429565,365.933258 
M425.536926,510.966187 
	C428.661591,511.100128 431.494598,510.100159 434.013153,508.399567 
	C443.165466,502.219757 453.566650,501.125061 464.135040,501.178375 
	C478.767914,501.252228 493.403168,502.079803 508.029602,501.910370 
	C526.522034,501.696167 544.976990,504.119537 563.444824,502.753906 
	C571.748535,502.139862 579.651550,502.867035 587.524475,505.457214 
	C591.425659,506.740662 595.371155,506.200043 599.207397,504.483276 
	C602.385193,503.061188 603.572388,500.916168 602.306580,497.718506 
	C600.051208,492.020966 599.629333,486.113129 599.667419,480.069061 
	C599.702576,474.498657 598.516418,473.377655 592.838684,473.375702 
	C539.366516,473.357025 485.894379,473.363525 432.422272,473.412720 
	C426.059570,473.418579 425.211121,474.281860 425.341919,480.713623 
	C425.533081,490.109039 424.181549,498.907654 417.750397,506.388824 
	C415.636383,508.848022 416.995728,511.259949 420.243744,511.396515 
	C421.725586,511.458771 423.223541,511.136963 425.536926,510.966187 
M600.123169,424.280151 
	C595.535583,425.210175 590.970154,426.384155 586.798157,428.453827 
	C579.870300,431.890656 572.479065,433.371124 564.991882,432.792877 
	C555.986450,432.097351 547.105896,432.077026 538.125244,433.000275 
	C524.278992,434.423676 510.200653,433.775452 496.991089,439.707123 
	C491.937134,441.976562 486.095154,444.044128 480.470795,442.247345 
	C466.396515,437.751129 451.955841,435.904083 437.331085,434.603027 
	C433.157104,434.231689 430.317444,434.436768 427.290466,437.824463 
	C422.469299,443.220215 422.286530,443.237946 425.065643,451.425232 
	C426.833984,456.634644 430.890167,455.614990 434.526886,455.623718 
	C462.502686,455.690918 490.478790,455.647827 518.454773,455.647034 
	C543.111633,455.646332 567.768433,455.655060 592.425293,455.662598 
	C595.646301,455.663574 599.134521,455.834167 600.285339,451.937500 
	C602.580200,444.167175 606.860840,437.848053 613.086975,432.711212 
	C614.927673,431.192566 614.914307,428.761597 614.389587,426.696838 
	C613.879150,424.688507 611.905273,424.107544 609.983459,424.073273 
	C606.989990,424.019836 603.993896,424.109100 600.123169,424.280151 
M363.750275,489.148682 
	C363.680603,485.817566 363.650757,482.484985 363.530670,479.155701 
	C363.395996,475.421906 361.738373,473.410126 357.667480,473.374695 
	C344.170197,473.257355 330.676239,473.446045 317.213593,474.306366 
	C306.516876,474.989929 300.331726,481.980927 300.295746,492.685150 
	C300.274994,498.849701 300.316101,505.014496 300.309082,511.179169 
	C300.305908,513.969971 300.575073,516.637512 303.780426,517.635315 
	C306.906097,518.608337 309.695465,518.022949 311.976410,515.526611 
	C313.924835,513.394226 314.942810,510.725830 316.281433,508.237335 
	C318.748291,503.651642 321.192902,502.846313 325.532684,505.713348 
	C329.058533,508.042664 332.272064,508.519989 336.278687,506.745453 
	C340.266602,504.979187 344.388062,504.288513 348.363129,507.838867 
	C356.610138,515.204834 358.396790,515.036133 368.029816,509.266785 
	C371.071655,507.445068 371.080078,505.861816 369.321167,503.330841 
	C366.528595,499.312531 364.783142,494.831451 363.750275,489.148682 
M660.666931,504.278687 
	C666.102661,506.921997 671.177551,505.502014 675.725891,502.355835 
	C680.021057,499.384796 684.560486,497.234680 689.495361,495.577759 
	C696.921570,493.084442 699.419250,493.509613 704.041077,499.748230 
	C706.139709,502.580994 708.454773,505.155365 711.065125,507.477264 
	C714.038818,510.122406 717.496094,510.048401 720.905090,508.659851 
	C724.164917,507.332092 725.700134,504.614197 725.592163,501.127655 
	C725.463684,496.979309 725.491028,492.784058 724.849060,488.703827 
	C723.954102,483.015472 714.820923,474.586212 708.940674,474.000397 
	C695.011902,472.612671 681.030884,473.516174 667.072571,473.439545 
	C663.464172,473.419739 662.237244,475.816864 662.341736,479.117462 
	C662.570496,486.345184 661.799011,493.402039 658.535461,499.980896 
	C657.548523,501.970459 658.297180,503.108154 660.666931,504.278687 
M642.892639,491.186554 
	C643.178833,490.408112 643.596985,489.651733 643.731384,488.847900 
	C645.581482,477.782745 644.838806,466.644501 644.205383,455.561279 
	C643.995605,451.889618 641.188416,449.025543 637.715271,447.199829 
	C628.406616,442.306427 617.764587,449.243347 617.405396,460.676514 
	C617.165100,468.321747 617.255127,475.981415 617.362610,483.632324 
	C617.468201,491.149597 620.996155,496.266846 627.185852,498.302063 
	C632.710632,500.118652 637.877441,497.963806 642.892639,491.186554 
M403.834167,495.378479 
	C407.502808,491.891907 408.490875,487.314911 408.504272,482.596161 
	C408.526947,474.614075 408.767761,466.620178 407.953796,458.647278 
	C407.218079,451.440704 401.035034,445.180756 394.744019,445.464355 
	C387.372284,445.796631 381.343445,451.987946 381.256012,459.531525 
	C381.159454,467.858765 381.285187,476.188385 381.214722,484.516144 
	C381.164825,490.406799 383.557343,494.889893 388.790894,497.557892 
	C393.891388,500.158051 398.787811,499.349518 403.834167,495.378479 
M667.702026,410.215637 
	C659.786682,413.279480 651.715942,415.769653 643.370483,417.435913 
	C640.646118,417.979919 637.485107,419.190155 637.478210,422.625488 
	C637.471924,425.745361 639.317505,428.018402 642.448181,429.416412 
	C649.977295,432.778503 655.681763,438.222412 659.546021,445.550781 
	C662.386658,450.937897 664.145325,451.175934 668.167786,446.397308 
	C674.995056,438.286774 679.697021,429.033478 682.573730,418.439545 
	C680.011536,417.394623 678.704163,414.670502 676.269348,413.264984 
	C673.835693,411.860168 671.458740,410.230988 667.702026,410.215637 
z"/>
<path fill="#000000" opacity="1.000000" stroke="none" 
	d="
M789.283325,858.996704 
	C797.396423,878.821655 792.737427,899.169373 778.127930,910.469360 
	C767.014160,919.065430 745.832214,920.617126 734.533264,909.952820 
	C733.834412,909.293213 732.974792,908.803833 732.226257,908.261536 
	C731.821167,908.644043 731.434021,908.830078 731.392151,909.075073 
	C730.182922,916.158142 730.188477,916.158997 723.121521,916.029846 
	C710.672607,915.802246 710.667847,915.802368 710.666321,903.431519 
	C710.662354,871.951660 710.743713,840.471375 710.574463,808.992432 
	C710.549194,804.309021 711.802551,802.525818 716.728821,802.649780 
	C734.072144,803.086243 731.052368,800.906555 731.289001,817.280823 
	C731.424988,826.690430 731.313660,836.103638 731.313660,845.936096 
	C756.924316,830.521545 777.197510,835.184570 789.283325,858.996704 
M754.182922,897.706482 
	C764.337646,896.632629 770.562012,890.160706 772.268494,878.901917 
	C773.489197,870.848022 767.541565,861.140076 759.331055,857.784851 
	C750.464050,854.161438 740.857971,856.766602 735.394348,864.677246 
	C730.674072,871.511780 730.072815,879.013123 733.886169,886.401917 
	C737.877625,894.135803 744.238586,898.409912 754.182922,897.706482 
z"/>
<path fill="#000000" opacity="1.000000" stroke="none" 
	d="
M553.349060,855.000122 
	C553.333679,873.494690 553.191345,891.490723 553.390869,909.482910 
	C553.441040,914.010315 552.113953,915.978333 547.464233,915.456787 
	C545.159973,915.198364 542.803894,915.409546 540.471313,915.394531 
	C536.134277,915.366577 530.898315,916.556213 532.798523,908.346985 
	C526.054810,912.030701 520.603943,915.695801 513.747253,916.566895 
	C497.009033,918.693237 482.301819,910.578857 476.272705,894.857849 
	C470.999481,881.107727 471.622589,867.455994 478.627838,854.368042 
	C488.683228,835.581360 511.791382,830.391968 529.083862,842.902588 
	C529.988647,843.557129 530.682800,844.618225 532.654541,844.573914 
	C532.654541,834.991821 532.530884,825.402649 532.683777,815.817932 
	C532.908691,801.714233 530.004150,803.095337 545.797119,802.805969 
	C553.336792,802.667725 553.343933,802.717102 553.346558,810.513123 
	C553.351501,825.175415 553.348450,839.837769 553.349060,855.000122 
M496.959167,866.569641 
	C493.988159,871.203003 493.884979,876.377502 494.444092,881.549866 
	C495.318146,889.635498 502.422699,896.812073 509.999512,897.606567 
	C519.304138,898.582214 528.894470,892.098206 531.448914,883.104675 
	C534.368774,872.824463 530.000916,862.393066 521.017456,858.192200 
	C512.170715,854.055298 503.848602,856.780151 496.959167,866.569641 
z"/>
<path fill="#000000" opacity="1.000000" stroke="none" 
	d="
M110.594383,844.648499 
	C102.699486,862.461365 107.306404,881.843140 121.443634,891.354004 
	C135.088715,900.533752 152.796783,897.843506 163.994476,884.437073 
	C166.945908,880.903564 168.989258,880.401672 172.323685,883.524170 
	C175.232422,886.247925 178.427521,888.688660 181.641510,891.057190 
	C184.676834,893.294006 184.451416,895.250427 182.151321,898.033264 
	C168.136673,914.989380 144.518723,921.950378 123.467575,915.140137 
	C98.078918,906.926636 83.509789,886.901733 83.660332,860.426086 
	C83.809097,834.263916 103.114594,811.714539 129.908829,806.675049 
	C150.702896,802.764038 167.446167,809.894714 180.871323,825.830078 
	C182.796280,828.115051 182.980347,829.832642 180.336594,831.502502 
	C179.774750,831.857422 179.258270,832.284241 178.722061,832.679565 
	C175.104523,835.346924 171.820084,839.284851 167.781052,840.343323 
	C163.281586,841.522339 161.262436,835.685730 157.812851,833.343140 
	C140.828934,821.809875 122.004509,826.073242 110.594383,844.648499 
z"/>
<path fill="#000000" opacity="1.000000" stroke="none" 
	d="
M357.999847,884.371033 
	C346.413879,884.370972 335.327850,884.370972 324.199921,884.370972 
	C324.784790,892.767090 332.366272,899.043274 341.675476,899.645081 
	C348.209778,900.067505 354.299164,898.526917 359.718903,895.000549 
	C362.815887,892.985474 365.024628,893.207458 367.404388,895.885742 
	C368.719788,897.366089 370.384857,898.537354 371.901978,899.836609 
	C376.384918,903.676208 376.571320,904.216736 371.863770,908.059021 
	C358.952728,918.597168 344.305450,920.937073 328.751312,915.551453 
	C313.669861,910.329590 304.749756,899.705872 302.412567,883.535583 
	C299.404510,862.724182 311.259308,842.216248 330.364319,837.684265 
	C361.739746,830.241516 381.786957,851.086182 380.337158,881.053223 
	C380.206390,883.755920 378.789886,884.387390 376.477875,884.373535 
	C370.485413,884.337524 364.492523,884.367493 357.999847,884.371033 
M344.482849,868.649475 
	C349.011139,868.383606 353.627838,869.233215 358.109070,868.050842 
	C356.987366,859.610779 349.846252,853.675537 341.401581,853.741211 
	C333.079956,853.805908 325.494781,860.111145 324.176117,868.648865 
	C330.673004,868.648865 337.081268,868.648865 344.482849,868.649475 
z"/>
<path fill="#000000" opacity="1.000000" stroke="none" 
	d="
M807.110901,901.774048 
	C788.287109,872.905334 804.922791,838.287903 839.061829,836.059082 
	C862.935059,834.500488 881.899902,853.140076 882.338013,873.867371 
	C882.759888,893.830017 873.751160,908.856506 857.828430,915.086731 
	C839.436829,922.283081 820.759766,917.468140 807.110901,901.774048 
M824.742126,864.288147 
	C824.098083,865.258667 823.378540,866.187988 822.821838,867.206299 
	C817.930237,876.153748 820.259521,887.015503 828.471191,893.685425 
	C836.666992,900.342285 846.203430,900.244629 854.500610,893.418823 
	C862.012878,887.238770 864.125793,875.718750 859.326721,867.104797 
	C851.685608,853.389343 836.740967,851.918579 824.742126,864.288147 
z"/>
<path fill="#000000" opacity="1.000000" stroke="none" 
	d="
M254.752869,850.489258 
	C257.948090,856.352966 259.186005,862.395752 259.260742,868.578186 
	C259.429932,882.568787 259.170959,896.564636 259.349884,910.554993 
	C259.404358,914.816345 257.595459,916.212830 253.694122,916.040161 
	C251.201065,915.929749 248.688812,915.918396 246.201309,916.092834 
	C242.106979,916.379944 238.734039,915.922485 239.479843,909.834167 
	C233.034973,914.314148 226.686340,917.032593 219.635880,917.873535 
	C208.834595,919.161865 191.796280,914.190063 188.089005,899.155579 
	C183.928558,882.283203 195.935989,867.795532 214.696091,866.566467 
	C222.880692,866.030212 230.910507,866.714966 238.907272,868.015747 
	C240.383942,860.923950 235.894699,855.548767 227.976379,854.334839 
	C220.792084,853.233521 213.955902,854.649048 207.581009,857.689941 
	C203.827438,859.480469 201.520355,858.921570 199.129913,855.748413 
	C197.356888,853.395020 195.089081,851.414307 192.821075,849.036316 
	C197.259827,843.466125 202.818787,840.527649 209.070221,838.466248 
	C218.695190,835.292358 228.333237,835.209473 238.001236,837.974365 
	C244.989822,839.972961 250.453812,844.176392 254.752869,850.489258 
M208.544937,893.044250 
	C211.189529,899.998291 217.120544,900.914795 223.303131,900.564331 
	C229.766159,900.197937 236.007233,898.549866 239.179749,892.066162 
	C241.377701,887.574219 239.837769,884.814148 234.917175,883.852051 
	C229.006317,882.696350 222.989822,882.456848 217.056671,883.527039 
	C212.283997,884.387939 208.702713,886.840820 208.544937,893.044250 
z"/>
<path fill="#000000" opacity="1.000000" stroke="none" 
	d="
M677.288208,914.641907 
	C662.349731,919.580200 648.413757,918.646606 635.508484,909.803772 
	C621.416992,900.148132 617.334778,884.162476 620.263367,868.740906 
	C623.505432,851.668701 634.079529,840.382507 651.326904,836.824402 
	C675.266541,831.885742 697.132996,845.474304 701.694702,868.417236 
	C705.452209,887.315613 697.549866,905.476562 677.288208,914.641907 
M667.916809,896.672119 
	C671.395203,895.286804 674.371887,893.145142 676.669922,890.231201 
	C681.946350,883.540649 683.339478,876.080078 679.693481,868.280396 
	C676.249268,860.912537 670.531372,855.981934 662.079163,855.399597 
	C652.894348,854.766724 646.364380,859.363770 642.352356,867.204407 
	C638.272400,875.177673 639.233215,883.125244 644.856323,890.114441 
	C650.650452,897.316162 658.191833,899.672668 667.916809,896.672119 
z"/>
<path fill="#000000" opacity="1.000000" stroke="none" 
	d="
M465.060211,871.257568 
	C465.071136,884.393799 464.927124,897.060181 465.161255,909.719543 
	C465.241852,914.077393 463.555481,915.883423 459.404236,915.757324 
	C455.245575,915.631042 451.087128,915.492126 446.929688,915.330261 
	C443.357544,915.191223 443.835297,912.485596 443.827271,910.219971 
	C443.783539,897.889648 443.723389,885.558716 443.808411,873.228943 
	C443.854279,866.577209 442.052277,860.823608 435.670441,857.899597 
	C428.844330,854.772034 422.293762,856.216614 416.461578,860.744629 
	C412.992889,863.437744 411.209045,866.953735 411.261108,871.540833 
	C411.404816,884.202942 411.113922,896.873047 411.436493,909.528625 
	C411.553986,914.138855 409.854675,915.494263 405.563354,915.878662 
	C390.650238,917.214478 390.661835,917.340637 390.659882,902.406738 
	C390.657806,886.410461 390.697723,870.413940 390.620422,854.418030 
	C390.602753,850.766235 390.262756,847.108521 389.918365,843.468018 
	C389.603851,840.142822 390.692474,838.442139 394.310516,838.588562 
	C397.800781,838.729736 401.330994,838.773987 404.796265,838.409912 
	C408.811829,837.987915 410.908081,839.096985 410.360748,843.481995 
	C410.241974,844.433655 410.459869,845.427307 410.579163,847.276062 
	C413.783142,844.828247 416.292603,842.470825 419.308228,840.833984 
	C439.777161,829.723511 462.181732,841.623901 464.380096,864.834167 
	C464.568298,866.821228 464.827393,868.801514 465.060211,871.257568 
z"/>
<path fill="#000000" opacity="1.000000" stroke="none" 
	d="
M917.350525,876.997559 
	C917.350464,881.162842 917.341858,884.829041 917.351501,888.495300 
	C917.373901,896.954651 922.015808,900.414307 930.346985,898.146912 
	C932.241943,897.631165 934.097900,896.971497 936.657959,896.160828 
	C937.646973,901.996033 937.418701,907.347107 936.591675,912.701477 
	C936.398499,913.952637 935.385071,914.719421 934.230652,915.069580 
	C924.776245,917.937500 915.497986,918.054138 906.820740,912.654236 
	C899.880493,908.335388 896.735474,901.778809 896.683777,893.727051 
	C896.615295,883.062073 896.513733,872.392883 896.748535,861.732544 
	C896.840759,857.544739 895.351685,856.210083 891.261719,856.300476 
	C884.503479,856.449890 884.499695,856.238770 884.639038,849.675964 
	C884.653137,849.009644 884.648010,848.342834 884.651184,847.676270 
	C884.691650,839.293152 884.685486,839.196472 892.799438,838.684448 
	C895.532532,838.511963 896.714539,837.485962 896.692139,834.751526 
	C896.651123,829.753052 896.830872,824.752258 896.761292,819.754639 
	C896.713928,816.347839 898.278748,815.150146 901.595581,814.970337 
	C917.352722,814.116516 917.308655,814.050964 917.364441,829.626465 
	C917.398621,839.170166 916.020630,838.648987 926.625732,838.597473 
	C936.206665,838.550842 936.206482,838.519897 936.228333,848.313965 
	C936.246216,856.368408 936.246094,856.332397 928.001526,856.380432 
	C915.854004,856.451172 917.479736,854.935486 917.354858,866.999512 
	C917.322083,870.165466 917.350159,873.332153 917.350525,876.997559 
z"/>
<path fill="#000000" opacity="1.000000" stroke="none" 
	d="
M269.812378,821.002441 
	C269.816803,816.009399 269.830231,811.515869 269.819244,807.022278 
	C269.812195,804.138855 271.193939,802.759277 274.106720,802.788147 
	C277.933960,802.826172 281.770752,802.916504 285.587708,802.702942 
	C289.738617,802.470642 291.246796,804.370361 291.199646,808.333069 
	C291.094696,817.152771 291.172333,825.974609 291.170197,834.795532 
	C291.164246,859.594055 291.166138,884.392578 291.140625,909.191101 
	C291.134247,915.375366 290.535889,916.072083 284.233002,916.023254 
	C267.295410,915.892151 269.984344,918.119812 269.891357,901.889099 
	C269.737823,875.094177 269.825165,848.297729 269.812378,821.002441 
z"/>
<path fill="#000000" opacity="1.000000" stroke="none" 
	d="
M567.641724,859.119873 
	C567.395020,853.314270 567.162170,847.992126 566.902222,842.671265 
	C566.737427,839.297119 568.301880,837.721741 571.685425,837.893677 
	C573.015198,837.961304 574.351196,837.905640 575.684326,837.907532 
	C586.917542,837.923523 586.917542,837.923645 587.484558,848.792664 
	C589.766602,846.688477 591.940979,844.365356 594.431824,842.455017 
	C599.194885,838.802124 604.790039,837.264587 610.703796,836.771545 
	C613.845947,836.509521 615.382996,837.538208 614.825378,841.082153 
	C614.362854,844.021484 614.513916,847.054565 614.341980,850.043152 
	C614.181396,852.833862 614.820129,855.693726 613.760193,858.359131 
	C613.358521,858.541504 613.049622,858.818359 612.778625,858.785278 
	C599.361389,857.145325 590.880066,863.903320 589.301819,877.508850 
	C588.032288,888.453552 589.589905,899.458435 588.517273,910.437439 
	C588.129211,914.409790 586.831421,915.728455 583.100586,915.461060 
	C580.614868,915.282898 578.104553,915.478088 575.606445,915.436829 
	C567.656006,915.305725 567.651794,915.293152 567.649414,907.098145 
	C567.644775,891.266724 567.645569,875.435303 567.641724,859.119873 
z"/>
<path fill="#000000" opacity="1.000000" stroke="none" 
	d="
M430.506348,647.243103 
	C440.076935,648.392639 443.262482,651.097168 443.876099,661.714600 
	C444.623291,674.641724 445.106689,687.676636 443.271027,700.594177 
	C442.338135,707.158875 438.313293,710.436340 431.574341,710.392029 
	C418.418457,710.305420 405.276001,710.485657 392.125214,711.021118 
	C379.202515,711.547302 374.377167,707.186951 373.832336,694.299622 
	C373.368408,683.325500 373.512665,672.314331 373.730957,661.326416 
	C373.884338,653.606750 379.646790,647.976562 387.628204,647.765625 
	C401.771271,647.391846 415.923553,647.365967 430.506348,647.243103 
z"/>
<path fill="#000000" opacity="1.000000" stroke="none" 
	d="
M623.999268,709.332642 
	C615.504395,709.336670 607.509094,709.383301 599.514404,709.328003 
	C591.849121,709.274963 586.833313,705.902771 585.307922,698.626099 
	C582.590027,685.660828 583.013855,672.439880 584.355164,659.391113 
	C585.186951,651.299622 590.818054,646.967224 599.216064,646.794128 
	C612.868286,646.512695 626.534058,646.542053 640.187256,646.802124 
	C647.479370,646.940979 653.205566,652.094421 654.273315,659.329285 
	C656.054382,671.397583 655.990173,683.573547 654.454224,695.640991 
	C653.265442,704.980896 648.595154,708.757019 638.988037,709.213135 
	C634.167358,709.442017 629.329346,709.303162 623.999268,709.332642 
z"/>
<path fill="#000000" opacity="1.000000" stroke="none" 
	d="
M654.360352,574.047363 
	C656.515869,586.262573 654.091370,598.030884 654.149963,609.811584 
	C654.183289,616.497803 648.319458,621.590820 641.466797,622.402466 
	C627.702148,624.032776 613.881165,623.400024 600.096008,623.171204 
	C590.041016,623.004333 584.674744,616.835571 584.669312,606.839722 
	C584.663879,597.025208 584.645691,587.210571 584.681213,577.396179 
	C584.721130,566.367065 589.078674,561.495544 599.938232,560.569946 
	C613.552063,559.409668 627.179626,559.703918 640.789124,560.680115 
	C648.222900,561.213379 652.812439,565.728333 654.360352,574.047363 
z"/>
<path fill="#000000" opacity="1.000000" stroke="none" 
	d="
M443.791290,611.760010 
	C442.550751,621.326660 439.308014,624.268188 430.085175,624.306702 
	C416.113159,624.365051 402.140594,624.374878 388.168579,624.323792 
	C378.791779,624.289490 373.776733,619.237976 373.702118,609.741821 
	C373.619812,599.263245 373.625671,588.783386 373.679565,578.304504 
	C373.731323,568.240479 379.085480,562.858948 389.012695,562.650452 
	C401.809357,562.381714 414.603790,561.974121 427.401489,561.794373 
	C439.124756,561.629700 442.477814,565.471436 443.506592,576.977112 
	C444.533997,588.467773 442.811859,599.906128 443.791290,611.760010 
z"/>
<path fill="#000000" opacity="1.000000" stroke="none" 
	d="
M478.743713,677.000000 
	C478.736115,671.003662 478.591553,665.503113 478.755280,660.011719 
	C478.994293,651.994812 483.375183,647.738220 491.338531,647.704224 
	C504.329987,647.648682 517.322327,647.646240 530.313293,647.746033 
	C532.952454,647.766235 535.623779,648.160583 538.217163,648.691101 
	C545.044739,650.087646 548.259583,653.934265 548.307922,660.888123 
	C548.390137,672.713318 548.411865,684.540344 548.292603,696.364990 
	C548.207336,704.822327 543.636047,709.148193 535.229187,709.327148 
	C522.252197,709.603271 509.279175,710.132141 496.301331,710.283875 
	C484.550659,710.421265 479.631500,705.740906 478.957581,693.985352 
	C478.643372,688.504089 478.800873,682.995850 478.743713,677.000000 
z"/>
<path fill="#000000" opacity="1.000000" stroke="none" 
	d="
M519.999268,561.721008 
	C525.158813,561.721497 529.821777,561.613159 534.477783,561.746277 
	C543.621704,562.007751 548.167358,566.727905 548.346313,575.797546 
	C548.559570,586.605896 548.096863,597.413147 548.858032,608.229004 
	C549.486389,617.158691 543.864685,622.959473 534.014343,623.228149 
	C520.211914,623.604614 506.386993,623.521973 492.580109,623.232666 
	C484.365509,623.060547 480.080505,618.017883 479.562378,609.820618 
	C478.953125,600.181396 479.082367,590.519226 478.552582,580.898621 
	C477.869415,568.492798 485.281036,562.213806 497.034027,561.841064 
	C504.516235,561.603638 512.010559,561.748108 519.999268,561.721008 
z"/>
<path fill="#000000" opacity="1.000000" stroke="none" 
	d="
M561.808838,301.875366 
	C571.399963,291.513855 582.716553,287.287476 596.244812,290.834930 
	C609.026550,294.186646 617.156860,302.332916 620.617065,315.293427 
	C626.199829,336.204132 610.457825,357.184753 588.809509,357.364929 
	C571.251953,357.511047 558.842285,348.878876 555.349854,332.822632 
	C552.995667,321.999298 554.131287,311.280609 561.808838,301.875366 
M570.044250,318.304718 
	C571.105347,319.882782 572.631470,320.832916 574.362915,321.508301 
	C578.395874,323.081482 583.100525,321.434753 585.557983,317.587616 
	C588.204773,313.444061 587.747803,309.284180 584.164185,306.072357 
	C580.877930,303.126984 577.186279,302.260010 573.247253,304.683899 
	C568.757324,307.446747 567.591553,311.914551 570.044250,318.304718 
z"/>
<path fill="#000000" opacity="1.000000" stroke="none" 
	d="
M459.972351,295.881683 
	C471.565643,304.358032 476.233917,315.621246 473.796051,329.205627 
	C471.347076,342.851746 463.416809,352.392792 449.714874,356.334961 
	C435.073578,360.547363 419.636810,354.657471 411.904938,342.086121 
	C403.620087,328.615692 405.240143,311.824371 415.957397,300.082825 
	C425.719299,289.387939 441.721191,286.586426 455.334076,293.221222 
	C456.824585,293.947693 458.228333,294.852234 459.972351,295.881683 
M424.888214,304.137695 
	C424.104889,304.742310 423.246674,305.271851 422.551514,305.964935 
	C419.917999,308.590576 418.411194,311.744354 419.788330,315.387115 
	C421.135010,318.949402 423.602936,321.525513 427.774780,321.908447 
	C431.839020,322.281464 434.818115,320.634247 437.010712,317.323547 
	C439.037354,314.263458 439.219604,311.160553 437.174225,308.036072 
	C434.362732,303.741364 430.423523,302.477875 424.888214,304.137695 
z"/>
</svg>